<svg width="32" height="32" viewBox="0 0 32 32" fill="none" xmlns="http://www.w3.org/2000/svg">
<path d="M12.5198 4.33333V3H19.4932V4.33333H12.5198ZM15.3398 19.1533H16.6732V12.18H15.3398V19.1533ZM16.0065 29C14.5327 29 13.1492 28.7218 11.8558 28.1653C10.5634 27.6089 9.43229 26.8462 8.46251 25.8773C7.49362 24.9084 6.73095 23.7773 6.17451 22.484C5.61807 21.1907 5.33984 19.8071 5.33984 18.3333C5.33984 16.8596 5.61807 15.476 6.17451 14.1827C6.73095 12.8902 7.49362 11.7591 8.46251 10.7893C9.4314 9.82044 10.563 9.05778 11.8572 8.50133C13.1496 7.94489 14.5327 7.66667 16.0065 7.66667C17.299 7.66667 18.5487 7.89778 19.7558 8.36C20.9621 8.82044 22.0696 9.47289 23.0785 10.3173L24.5345 8.86133L25.4785 9.80533L24.0225 11.2613C24.867 12.2702 25.5198 13.3778 25.9812 14.584C26.4425 15.7911 26.6732 17.0409 26.6732 18.3333C26.6732 19.8071 26.395 21.1907 25.8385 22.484C25.2821 23.7764 24.5194 24.9076 23.5505 25.8773C22.5816 26.8462 21.4505 27.6089 20.1572 28.1653C18.8638 28.7218 17.4803 29 16.0065 29ZM16.0065 27.6667C18.5843 27.6667 20.7843 26.7556 22.6065 24.9333C24.4287 23.1111 25.3398 20.9111 25.3398 18.3333C25.3398 15.7556 24.4287 13.5556 22.6065 11.7333C20.7843 9.91111 18.5843 9 16.0065 9C13.4287 9 11.2287 9.91111 9.40651 11.7333C7.58429 13.5556 6.67318 15.7556 6.67318 18.3333C6.67318 20.9111 7.58429 23.1111 9.40651 24.9333C11.2287 26.7556 13.4287 27.6667 16.0065 27.6667Z" fill="black" fill-opacity="0.6" stroke="black" stroke-opacity="0.6" stroke-width="0.25" stroke-linejoin="round"/>
</svg>
