<svg width="32" height="32" viewBox="0 0 32 32" fill="none" xmlns="http://www.w3.org/2000/svg">
<path d="M26.5 9.25H6.5C6.16848 9.25 5.85054 9.1183 5.61612 8.88388C5.3817 8.64946 5.25 8.33152 5.25 8C5.25 7.66848 5.3817 7.35054 5.61612 7.11612C5.85054 6.8817 6.16848 6.75 6.5 6.75H23.5C23.6989 6.75 23.8897 6.67098 24.0303 6.53033C24.171 6.38968 24.25 6.19891 24.25 6C24.25 5.80109 24.171 5.61032 24.0303 5.46967C23.8897 5.32902 23.6989 5.25 23.5 5.25H6.5C5.77065 5.25 5.07118 5.53973 4.55546 6.05546C4.03973 6.57118 3.75 7.27065 3.75 8V24C3.75 24.7293 4.03973 25.4288 4.55546 25.9445C5.07118 26.4603 5.77065 26.75 6.5 26.75H26.5C26.9641 26.75 27.4092 26.5656 27.7374 26.2374C28.0656 25.9092 28.25 25.4641 28.25 25V11C28.25 10.5359 28.0656 10.0908 27.7374 9.76256C27.4092 9.43437 26.9641 9.25 26.5 9.25ZM26.75 25C26.75 25.0663 26.7237 25.1299 26.6768 25.1768C26.6299 25.2237 26.5663 25.25 26.5 25.25H6.5C6.16848 25.25 5.85054 25.1183 5.61612 24.8839C5.3817 24.6495 5.25 24.3315 5.25 24V10.4487C5.63674 10.6473 6.06529 10.7505 6.5 10.75H26.5C26.5663 10.75 26.6299 10.7763 26.6768 10.8232C26.7237 10.8701 26.75 10.9337 26.75 11V25ZM23.25 17.5C23.25 17.7472 23.1767 17.9889 23.0393 18.1945C22.902 18.4 22.7068 18.5602 22.4784 18.6549C22.2499 18.7495 21.9986 18.7742 21.7561 18.726C21.5137 18.6777 21.2909 18.5587 21.1161 18.3839C20.9413 18.2091 20.8223 17.9863 20.774 17.7439C20.7258 17.5014 20.7505 17.2501 20.8451 17.0216C20.9398 16.7932 21.1 16.598 21.3055 16.4607C21.5111 16.3233 21.7528 16.25 22 16.25C22.3315 16.25 22.6495 16.3817 22.8839 16.6161C23.1183 16.8505 23.25 17.1685 23.25 17.5Z" fill="black" fill-opacity="0.6"/>
</svg>
